<?xml version="1.0" encoding="UTF-8" standalone="no"?>
<!-- Created with Inkscape (http://www.inkscape.org/) -->

<svg
   version="1.1"
   id="svg2"
   width="2063.8533"
   height="226.66667"
   viewBox="0 0 2063.8533 226.66667"
   sodipodi:docname="Logo CMYK White.eps"
   xmlns:inkscape="http://www.inkscape.org/namespaces/inkscape"
   xmlns:sodipodi="http://sodipodi.sourceforge.net/DTD/sodipodi-0.dtd"
   xmlns="http://www.w3.org/2000/svg"
   xmlns:svg="http://www.w3.org/2000/svg">
  <defs
     id="defs6" />
  <sodipodi:namedview
     id="namedview4"
     pagecolor="#ffffff"
     bordercolor="#000000"
     borderopacity="0.25"
     inkscape:showpageshadow="2"
     inkscape:pageopacity="0.0"
     inkscape:pagecheckerboard="0"
     inkscape:deskcolor="#d1d1d1" />
  <g
     id="g8"
     inkscape:groupmode="layer"
     inkscape:label="ink_ext_XXXXXX"
     transform="matrix(1.3333333,0,0,-1.3333333,0,226.66667)">
    <g
       id="g10"
       transform="scale(0.1)">
      <path
         d="M 6419.17,1700 V 0 h 1104.99 v 297.5 h -781.99 v 425 h 714 v 289 h -714 v 391 h 781.99 V 1700 H 6419.17"
         style="fill:#ffffff;fill-opacity:1;fill-rule:nonzero;stroke:none"
         id="path12" />
      <path
         d="m 5093.45,578 h -255 V 0 h -323 v 1700 h 578 c 362.53,0 646,-164.17 646,-561 0,-390.996 -285.61,-561 -646,-561 m -17,847.45 h -238 V 852.551 h 238 c 186.16,0 323,90.101 323,286.449 0,204 -136.84,286.45 -323,286.45"
         style="fill:#ffffff;fill-opacity:1;fill-rule:nonzero;stroke:none"
         id="path14" />
      <path
         d="m 10329.3,1700 v -297.5 h 399.5 v -1105 h -399.5 V 0 h 1122 v 297.5 h -399.5 v 1105 h 399.5 V 1700 h -1122"
         style="fill:#ffffff;fill-opacity:1;fill-rule:nonzero;stroke:none"
         id="path16" />
      <path
         d="m 9585.66,1173 c 0,396.83 -272,527 -629,527 h -629 V 0 h 323 v 629 h 272 c 14.89,0 29.71,0.262 44.39,0.789 L 9296.15,0 H 9654 l -365.12,697.172 c 177.7,78.945 296.78,230.57 296.78,475.828 m -340,0 c 0,-204.852 -119,-269.449 -323,-269.449 h -272 v 521.899 h 272 c 221.34,0 323,-82.45 323,-252.45"
         style="fill:#ffffff;fill-opacity:1;fill-rule:nonzero;stroke:none"
         id="path18" />
      <path
         d="M 12655.9,1700 12094.9,0 h 340 l 115.9,374 H 13186 L 13301.9,0 h 340 l -561,1700 z m 212.5,-301.62 232.4,-749.829 h -464.9 z"
         style="fill:#ffffff;fill-opacity:1;fill-rule:nonzero;stroke:none"
         id="path20" />
      <path
         d="M 14371.1,1700 V 0 h 1107.8 v 297.5 h -784.8 V 1700 h -323"
         style="fill:#ffffff;fill-opacity:1;fill-rule:nonzero;stroke:none"
         id="path22" />
      <path
         d="m 3234.71,1700 -408,-999.602 -408,999.602 h -459 V 0 h 306 v 1271 l 391,-897 h 17 306 17 l 391,897 V 0 h 306 v 1700 h -459"
         style="fill:#ffffff;fill-opacity:1;fill-rule:nonzero;stroke:none"
         id="path24" />
      <path
         d="M 0,1700 V 1402.5 H 399.496 V 297.5 H 0 V 0 H 1122 V 297.5 H 722.5 v 1105 H 1122 V 1700 H 0"
         style="fill:#ffffff;fill-opacity:1;fill-rule:nonzero;stroke:none"
         id="path26" />
    </g>
  </g>
</svg>
